<?xml version="1.0" encoding="UTF-8" standalone="no"?>
<!-- Created with Inkscape (http://www.inkscape.org/) -->

<svg
   width="210mm"
   height="297mm"
   viewBox="0 0 210 297"
   version="1.1"
   id="svg1"
   xml:space="preserve"
   xmlns="http://www.w3.org/2000/svg"
   xmlns:svg="http://www.w3.org/2000/svg"><defs
     id="defs1" /><g
     id="layer1"><path
       id="path24"
       style="display:inline;fill:#36afc6;fill-opacity:1"
       d="m 104.13111,68.356034 -2.32906,0.01344 c -1.28103,0.0075 -4.21375,0.183576 -6.51691,0.391191 l -4.187341,0.377755 -5.709729,1.459342 c -8.096089,2.069659 -9.309373,2.924643 -10.674801,7.522538 -0.62999,2.121404 -0.421572,3.726537 -0.365352,6.233728 l 0.28267,4.052983 0.617533,1.314132 c 1.119354,2.381086 5.056254,5.156942 8.224304,5.799129 4.34,0.879749 8.952962,0.0957 14.11025,-2.398303 1.82991,-0.884924 4.051786,-1.731351 4.937686,-1.881023 l 1.61075,-0.272334 v 0.001 l 1.61076,0.271818 c 0.8859,0.149672 3.10829,0.996615 4.9382,1.881539 5.15728,2.494007 9.76973,3.277536 14.10973,2.397787 3.16805,-0.642187 7.10495,-3.418044 8.2243,-5.79913 l 0.61754,-1.313615 0.28267,-4.052982 c 0.0562,-2.507191 0.26463,-4.112324 -0.36536,-6.233728 -1.36542,-4.597895 -2.57871,-5.452879 -10.6748,-7.522538 l -5.70921,-1.45986 -4.18786,-0.377238 c -2.30316,-0.207615 -5.23536,-0.38369 -6.51639,-0.39119 l -2.32958,-0.01344 z M 89.019889,78.591069 c 2.001096,-0.05595 4.402702,1.852795 4.615739,3.822505 0.23379,2.161587 -1.965099,4.823206 -4.127396,5.050338 -2.0956,0.220127 -4.73943,-1.858317 -4.929415,-3.956864 -0.195025,-2.154229 2.095218,-4.702952 4.248836,-4.904611 0.06363,-0.006 0.127685,-0.0096 0.192236,-0.01137 z m 30.222441,10e-4 c 0.0646,0.0018 0.12861,0.0054 0.19224,0.01137 2.15362,0.201659 4.44437,2.750381 4.24935,4.90461 -0.18999,2.098547 -2.83433,4.176991 -4.92993,3.956864 -2.1623,-0.227132 -4.36118,-2.889267 -4.12739,-5.050854 0.21303,-1.96971 2.61464,-3.877973 4.61573,-3.82199 z" /><path
       id="path28"
       style="display:inline;fill:#0c172a;fill-opacity:1"
       d="M 104.13111,15.597498 103.48102,16.137 c -0.35761,0.296789 -1.35432,1.576573 -2.21485,2.843754 -0.86053,1.267182 -3.061541,3.917853 -4.890657,5.890079 -10.493311,11.314309 -11.064372,12.599216 -7.17734,16.148885 l 1.767851,1.614372 -2.089278,3.046843 c -2.839965,4.141046 -6.132203,10.502751 -8.609811,16.638261 -2.360646,5.845868 -2.257512,5.359113 -1.406116,6.658508 0.822934,1.255956 0.638829,1.266189 7.097758,-0.386023 3.908012,-0.99968 7.741729,-1.700546 11.792562,-1.901693 l 6.379971,-0.517281 v 0.001 l 6.37997,0.516764 c 4.05083,0.201147 7.88507,0.902529 11.79308,1.902209 6.45893,1.652212 6.27431,1.641979 7.09724,0.386023 0.8514,-1.299395 0.95454,-0.81264 -1.40611,-6.658508 -2.4776,-6.13551 -5.76984,-12.497732 -8.60981,-16.638778 l -2.08928,-3.046325 1.76785,-1.614889 c 3.88703,-3.549669 3.31597,-4.834576 -7.17734,-16.148885 -1.82912,-1.972226 -4.02961,-4.622381 -4.89014,-5.889563 -0.86053,-1.267181 -1.85724,-2.546965 -2.21485,-2.843754 l -0.65061,-0.539502 z M 57.580981,31.005343 c -0.889996,-0.02592 -1.217045,0.854197 -3.224092,3.433899 -1.524977,2.056523 -4.001087,5.614693 -5.502507,7.90701 -1.557065,2.377273 -3.83213,5.953151 -3.117639,7.173723 l 1.854151,4.861202 c 2.868771,7.521445 2.824531,4.93087 0.405143,8.935372 -3.114153,5.154456 -4.974233,8.983904 -5.454448,11.18588 l -0.501261,2.298051 c 0.133545,5.785018 -0.08724,11.617928 0.400492,17.352946 0.415616,1.59788 1.330877,3.052948 2.313037,4.380095 1.465638,1.980449 5.242058,5.211049 5.242058,5.211049 2.883069,2.86605 4.895505,5.10883 4.472595,4.98368 -0.422911,-0.12516 -1.953735,-0.5194 -3.40186,-0.87592 -1.448124,-0.35651 -4.000057,-1.09636 -5.670971,-1.64383 -4.00613,-1.31257 -4.763813,-2.42682 -7.898743,-5.69112 -5.337998,-5.156951 -5.817607,-5.484924 -9.334314,-6.381524 -2.777702,-0.708187 -14.022724,-1.881022 -18.036625,-1.881022 -1.0473846,0 -1.9051014,-0.01268 -2.9791464,0.675411 -0.5495645,0.352081 -0.2621667,0.937589 4.2229984,2.713013 2.11649,0.837799 6.395683,2.833628 9.50898,4.434872 3.158835,1.62465 5.877109,2.4245 7.696171,5.59914 1.119683,1.47843 3.710488,4.96944 5.757271,7.75767 4.353982,5.93121 5.08932,6.55166 10.91923,9.21235 l 4.397665,2.00712 -1.21543,0.0692 c -2.425461,0.13891 -2.888127,-0.003 -6.076115,-1.86655 -1.782307,-1.04176 -5.4886,-3.00679 -8.23619,-4.36717 0,0 -3.199295,-1.99826 -4.99556,-2.47376 -2.082321,-0.55122 -4.333172,-0.76489 -6.451286,-0.3731 -1.159744,0.21452 -2.343341,0.67093 -3.225126,1.45418 -0.682645,0.60636 -7.56104,13.08236 -9.017538,18.91615 -0.284523,1.1396 -1.0448755,4.02153 -0.21239,4.97179 1.299693,1.86993 6.808331,8.38323 8.789128,10.16837 1.903398,1.71538 2.052688,1.50026 5.853389,1.34256 8.082295,-0.45769 17.93613,-5.1164 17.198951,-8.05997 -0.101611,-0.40574 -1.073357,-0.59302 -2.57452,-0.47491 -9.849811,0.24577 -12.62357,-0.8441 -15.203723,-5.68699 -0.693516,-1.30172 -0.997974,-2.45524 -0.845427,-3.92224 0.227784,-2.19053 3.245715,-6.85592 3.926375,-6.85592 1.664474,0 1.917196,0.16982 17.331242,11.65717 5.495237,4.09534 6.993244,3.31774 10.991577,2.13062 0.66149,-0.27275 2.487091,-1.20396 4.350639,-2.40243 1.90516,-1.22524 3.5718,-2.2119 4.295862,-2.75074 2.684791,-1.998 1.160677,0.0817 -4.325317,5.90248 -1.97561,2.09616 -6.052116,4.74111 -5.475635,7.57267 0.09115,0.87276 0.559367,6.11733 1.040247,11.65458 0.164171,1.8904 1.158236,8.88987 0.311092,10.41797 -2.154552,3.88643 -7.023313,1.84154 -9.774598,-1.52135 -2.047969,-2.50322 -2.959342,-3.41027 -2.960542,-6.01979 -9.16e-4,-2.01608 -0.185103,-4.52277 -0.188103,-5.64255 -0.0069,-2.53231 -0.364925,-3.93788 -0.952913,-3.74189 -0.876562,0.29219 -5.93232,11.26011 -5.92522,12.85399 0.0044,0.98562 6.141041,12.69709 6.898287,13.16509 0.159037,0.0983 8.713318,3.8135 14.208435,2.63912 2.976981,-0.63622 4.246357,-1.17534 5.522661,-1.6676 3.142387,-1.21198 7.940399,-3.07927 7.422802,-6.85488 l -0.84646,-6.17688 c -0.465728,-3.39725 -1.018026,-5.63257 -1.43247,-8.46357 -0.226634,-1.5481 -0.843029,-3.38111 -0.576193,-4.65811 0.270014,-1.29221 0.527145,-2.77526 1.764234,-3.97289 2.259686,-2.1876 4.695321,-5.28546 4.695321,-5.28546 l -0.98702,2.2965 c -0.54288,1.26307 -1.28825,3.4508 -1.65623,4.8612 -0.419487,1.6078 -0.617177,2.88789 -0.459403,4.63899 0.224146,2.48774 1.263344,4.58044 3.400309,7.03937 3.454454,3.97492 9.030973,12.29844 9.030973,13.47979 0,1.98404 -4.677037,9.41398 -6.628536,10.53011 l -0.865063,0.49454 -5.541781,0.20929 c -6.195839,0.23396 -6.576767,-0.32527 -8.0238,0.93638 -0.491428,0.91076 2.297259,2.15006 3.582211,2.4598 0.587758,0.14168 3.897234,1.04965 7.350455,2.03398 7.679086,2.18891 6.630198,2.20871 9.518799,-0.17828 1.33673,-1.10461 3.798004,-3.08775 5.468917,-4.40697 1.670913,-1.31922 3.629477,-3.05798 4.352706,-3.86384 0.519187,-0.42065 0.853837,-0.61297 1.197343,-0.81081 0.270932,-1.73758 1.137521,-2.7005 1.517737,-3.08301 -0.315315,-0.59595 -1.032764,-2.17356 0.08785,-4.26538 l 0.0057,-0.0119 0.0078,-0.0119 c 0.913712,-1.55119 2.384984,-1.78844 2.966744,-2.09961 0.29088,-0.15559 0.380844,-0.21401 0.449584,-0.57413 0.0686,-0.35941 0.01862,-1.08414 -0.335896,-2.28823 -0.08006,-0.19639 -0.158358,-0.34392 -0.239262,-0.58136 -0.328481,-0.96404 -1.777648,-3.47013 -3.219959,-5.56917 -1.442311,-2.09904 -3.413752,-5.18396 -4.381128,-6.85488 -1.774075,-3.06429 -2.022409,-3.35078 -1.801957,-7.10189 0.414944,-2.48966 1.771064,-4.40638 2.860291,-5.96242 3.342597,-3.05494 6.552717,-5.30993 11.340384,-5.56866 h 1.39475 V 123.1583 c -5.413894,-0.04 -10.369322,-3.00025 -15.09158,-7.0037 -4.870014,-4.12872 -9.583333,-9.45042 -14.27148,-14.73244 a 1.322915,1.322915 0 0 1 -0.127641,-0.2558 H 74.509664 L 71.801302,99.894161 C 66.791913,97.531627 60.930992,96.428848 56.818237,92.711654 l -1.047481,-1.129647 c -3.814339,-4.113593 -4.695021,-15.998644 -1.0573,-22.417753 3.303957,-5.830149 1.476422,-5.530735 8.472868,-3.978569 6.996205,1.509931 5.930394,1.456736 7.528739,-0.726054 0.503646,-0.687807 2.383663,-3.081062 4.050399,-5.420341 1.666735,-2.339278 3.394641,-4.708857 3.839559,-5.265828 1.053829,-1.319238 1.0047,-1.998642 0.77308,-3.798735 -0.181631,-1.411598 -1.004828,-4.047575 -1.789039,-6.489526 0,0 -1.010109,-2.890089 -1.687235,-4.496883 -0.580082,-0.580082 -1.089674,-0.719731 -1.861902,-0.273885 -0.814514,0.756135 -3.175517,3.377571 -3.175517,3.377571 l -3.175516,3.377572 c 1.425203,2.366862 2.049747,3.435307 2.295467,4.19871 -0.605726,2.089444 -0.776306,2.414221 -1.943551,3.958932 -1.495038,2.079278 -1.096879,1.787464 -4.288627,1.681551 -3.763257,-0.145256 -2.845784,0.274774 -5.077209,-3.042709 -2.321551,-3.47577 -2.286981,-2.360983 -0.500228,-6.1774 0.837784,-1.789466 2.0811,-2.934455 2.288749,-2.990515 0.548671,-0.148141 2.693991,0.690995 4.649845,0.95343 l 2.642733,-3.341915 c 1.45349,-1.838004 2.900417,-3.703425 2.910417,-4.19561 0.01268,-0.625029 0.05317,-0.849808 -0.248564,-1.27279 -0.212091,-0.29732 -1.973536,-0.825045 -3.755843,-1.321367 -1.782307,-0.496321 -4.645486,-1.454105 -6.38669,-2.060856 -1.42382,-0.496153 -2.160412,-0.83814 -2.69441,-0.853694 z m 93.100259,0.001 c -0.53399,0.01557 -1.27059,0.357025 -2.69441,0.853178 -1.7412,0.606751 -4.60438,1.565052 -6.38669,2.061373 -1.7823,0.496322 -3.54375,1.02353 -3.75584,1.32085 -0.30173,0.422982 -0.26073,0.647761 -0.24805,1.27279 0.01,0.492185 1.45641,2.358122 2.9099,4.196126 l 2.64274,3.341915 c 1.95585,-0.262435 4.10117,-1.101571 4.64984,-0.95343 0.20765,0.05606 1.45096,1.201049 2.28875,2.990515 1.78675,3.816417 1.82132,2.701631 -0.50023,6.177401 -2.23142,3.317483 -1.31396,2.897452 -5.07721,3.042708 -3.19175,0.105913 -2.79359,0.397727 -4.28862,-1.681551 -1.16725,-1.544711 -1.33784,-1.870004 -1.94356,-3.959448 0.24572,-0.763403 0.87027,-1.831331 2.29547,-4.198193 l -3.17552,-3.377572 c 0,0 -2.361,-2.621437 -3.17551,-3.377572 -0.77223,-0.445846 -1.2813,-0.306197 -1.86139,0.273885 -0.67712,1.606794 -1.68775,4.496884 -1.68775,4.496884 -0.78421,2.441951 -1.60741,5.077928 -1.78904,6.489526 -0.23162,1.800093 -0.28023,2.479496 0.7736,3.798734 0.44492,0.556971 2.1723,2.926551 3.83904,5.265829 1.66673,2.339279 3.54675,4.732534 4.0504,5.420341 1.59834,2.18279 0.53305,2.235985 7.52926,0.726054 6.99644,-1.552166 5.16839,-1.851581 8.47235,3.978568 3.63772,6.419109 2.75704,18.30416 -1.0573,22.417753 l -1.04748,1.12913 c -4.11275,3.717194 -9.97316,4.82049 -14.98255,7.183024 l -2.70888,1.272279 h -0.0191 c -4.07581,5.07853 -8.1975,10.21186 -13.0297,14.37948 -4.87286,4.20269 -10.45144,7.46588 -16.06465,7.61556 -0.17013,0.005 -0.33824,-0.003 -0.50746,-0.004 v 18.92133 h 1.39423 c 4.7877,0.25873 7.99832,2.51371 11.34091,5.56865 1.08923,1.55604 2.44483,3.47277 2.85977,5.96243 0.22046,3.75111 -0.0279,4.0376 -1.80196,7.10189 -0.96738,1.67092 -2.93881,4.75532 -4.38112,6.85436 -1.44231,2.09904 -2.89096,4.60565 -3.21944,5.56969 -0.0921,0.27017 -0.18148,0.44449 -0.27234,0.66146 a 0.66145998,0.66145998 0 0 1 -0.0248,0.21962 c -0.35639,1.20835 -0.40667,1.93277 -0.33797,2.29289 0.0687,0.36011 0.15871,0.4206 0.44959,0.57619 0.58176,0.31117 2.05303,0.54842 2.96674,2.09961 l 0.008,0.0114 0.006,0.0119 c 1.12059,2.09181 0.40317,3.66994 0.0879,4.26588 0.31185,0.31373 0.95176,1.0158 1.32137,2.21692 0.53026,0.27808 0.92481,0.78227 1.45262,1.37046 0.72323,0.80586 2.68231,2.54463 4.35323,3.86385 1.67091,1.31922 4.13167,3.30236 5.4684,4.40697 2.8886,2.38699 1.83972,2.36771 9.5188,0.1788 h 5.1e-4 c 3.45322,-0.98433 6.76218,-1.89281 7.34994,-2.03451 1.28495,-0.30974 4.07364,-1.54852 3.58221,-2.45928 -1.44703,-1.26165 -1.82796,-0.70241 -8.0238,-0.93637 l -5.54178,-0.20929 -0.86506,-0.49506 c -1.95149,-1.11613 -6.62854,-8.54555 -6.62854,-10.52959 0,-1.18135 5.57653,-9.50488 9.03098,-13.4798 2.13697,-2.45893 3.17616,-4.55162 3.4003,-7.03936 0.15778,-1.7511 -0.0399,-3.03171 -0.4594,-4.63951 -0.36798,-1.4104 -1.11335,-3.59762 -1.65623,-4.86069 l -0.98702,-2.2965 c 0,0 2.43563,3.09787 4.69532,5.28547 1.23708,1.19763 1.49422,2.68067 1.76424,3.97288 0.26683,1.277 -0.34957,3.11001 -0.5762,4.65811 -0.41445,2.831 -0.96623,5.0658 -1.43195,8.46305 l -0.84698,6.17689 c -0.5176,3.77561 4.28042,5.64341 7.42281,6.85539 1.2763,0.49226 2.54568,1.03138 5.52266,1.6676 5.49512,1.17438 14.04939,-2.54082 14.20843,-2.63911 0.75724,-0.468 6.89387,-12.17999 6.89829,-13.16561 0.007,-1.59388 -5.04866,-12.56129 -5.92522,-12.85348 -0.58799,-0.19599 -0.94552,1.20958 -0.9524,3.74189 -0.003,1.11978 -0.18771,3.62647 -0.18862,5.64255 -0.001,2.60952 -0.91257,3.51657 -2.96054,6.01979 -2.75128,3.36289 -7.62005,5.40778 -9.7746,1.52135 -0.84715,-1.5281 0.14744,-8.52757 0.31161,-10.41797 0.48088,-5.53725 0.94858,-10.78182 1.03973,-11.65458 0.57648,-2.83156 -3.50002,-5.47651 -5.47563,-7.57267 -5.486,-5.82074 -7.01011,-7.90048 -4.32532,-5.90248 0.72407,0.53884 2.3907,1.52498 4.29586,2.75022 1.86355,1.19847 3.68967,2.13021 4.35116,2.40296 3.99833,1.18712 5.49583,1.96472 10.99106,-2.13062 15.41405,-11.48735 15.66677,-11.65717 17.33124,-11.65717 0.68066,0 3.69859,4.66538 3.92637,6.85591 0.15255,1.467 -0.1519,2.62052 -0.84542,3.92224 -2.58015,4.84289 -5.3534,5.93276 -15.20321,5.68699 -0.98314,0.11212 -2.3799,0.004 -2.57504,0.47439 -1.16255,2.80295 9.11666,7.6028 17.19895,8.06049 3.8007,0.1577 3.94999,0.37283 5.85339,-1.34255 1.9808,-1.78514 7.48944,-8.29844 8.78913,-10.16837 0.83248,-0.95026 0.0721,-3.83219 -0.21239,-4.97179 -1.45649,-5.83379 -8.33438,-18.3098 -9.01702,-18.91616 -0.88179,-0.78325 -2.06589,-1.24017 -3.22564,-1.45469 -2.11811,-0.39179 -4.36897,-0.1776 -6.45129,0.37362 -1.79626,0.4755 -4.99556,2.47323 -4.99556,2.47323 -2.74759,1.36038 -6.45388,3.32593 -8.23619,4.36769 -3.18798,1.86337 -3.65065,2.00547 -6.07611,1.86656 l -1.21543,-0.0698 4.39818,-2.00711 c 5.82991,-2.66069 6.56472,-3.28063 10.91871,-9.21184 2.04678,-2.78823 4.63758,-6.27924 5.75727,-7.75767 1.81906,-3.17464 4.53734,-3.97449 7.69617,-5.59914 3.1133,-1.60123 7.39249,-3.597073 9.50898,-4.434872 4.48516,-1.775424 4.77256,-2.360932 4.223,-2.713013 -1.07405,-0.688092 -1.93176,-0.67541 -2.97914,-0.67541 -4.0139,0 -15.25841,1.172835 -18.03611,1.881022 -3.51671,0.8966 -3.99683,1.22458 -9.33483,6.381523 -3.13493,3.2643 -3.89262,4.37856 -7.89875,5.69113 -1.67091,0.54747 -4.22284,1.28732 -5.67097,1.64383 -1.44812,0.35652 -2.97895,0.75023 -3.40186,0.87539 -0.42291,0.12515 1.59005,-2.1171 4.47312,-4.98315 0,0 3.7759,-3.2306 5.24154,-5.211059 0.98216,-1.327147 1.89742,-2.782214 2.31303,-4.380094 0.48773,-5.735018 0.26695,-11.567928 0.4005,-17.352946 l -0.50075,-2.298568 c -0.48022,-2.201976 -2.34081,-6.031425 -5.45496,-11.185881 -2.41939,-4.004502 -2.46363,-1.413926 0.40514,-8.935371 l 1.85415,-4.860686 c 0.71449,-1.220572 -1.56058,-4.796966 -3.11764,-7.174239 -1.50142,-2.292317 -3.97754,-5.850488 -5.50251,-7.907011 -2.00705,-2.579702 -2.33411,-3.459324 -3.22409,-3.433382 z m -46.55013,62.362602 -1.28984,0.257865 c -0.70931,0.141861 -2.850946,0.977194 -4.759402,1.856218 -2.528576,1.134087 -5.1355,2.20525 -7.873937,2.54248 -4.109032,0.05611 -8.350969,0.0401 -11.69231,-1.880505 l -0.559656,0.765328 c -0.403614,0.551975 -0.681847,2.191686 -0.634586,3.397729 4.494223,5.06077 8.964492,10.04199 13.429154,13.82706 4.507551,3.82143 8.923806,6.33253 13.380577,6.37687 z m 5.2e-4,0.001 v 27.142005 c 0.14573,0.001 0.29136,0.008 0.43718,0.004 4.60556,-0.12281 9.78993,-2.98939 14.40842,-6.9727 4.30452,-3.71251 8.1305,-8.36399 11.95793,-13.12375 0.0713,-1.212249 -0.21272,-2.93915 -0.6289,-3.508309 l -0.55966,-0.765328 c -3.34134,1.920608 -7.58276,1.936617 -11.69179,1.880506 -2.73844,-0.33723 -5.34537,-1.408394 -7.87394,-2.542481 -1.90846,-0.879024 -4.0506,-1.714356 -4.75991,-1.856217 z m 0.0501,63.057645 c 7.1e-4,-3.2e-4 8.5e-4,8.3e-4 0.002,5.2e-4 -5.9e-4,3.2e-4 -9.5e-4,-3.3e-4 -0.002,0 -0.13567,0.13034 -0.25554,0.17849 -0.51108,0.67903 -0.49466,1.15786 -0.725,1.96514 -0.8046,2.29443 -0.28752,1.18893 -0.5713,-0.0279 -1.00872,-0.86868 -0.49402,-0.72702 -0.72112,-1.78541 -1.73685,-1.67122 -0.967272,0.18629 -0.81833,1.0599 -1.074349,2.01952 -0.41189,1.46803 -0.185215,2.21783 -1.172539,0.50281 -0.535356,-0.81705 -0.652655,-1.37586 -1.663981,-1.10226 -1.055479,0.28554 -0.58947,4.69626 2.899565,13.80019 0.258859,0.67545 0.506625,1.22183 0.50953,1.89239 0.242216,0.96343 0.30864,1.67771 0.193786,2.27945 -0.139001,0.72824 -0.637055,1.23254 -1.122929,1.49242 -0.968165,0.51786 -1.806421,0.52157 -2.445328,1.59576 -1.015074,1.91515 0.04082,3.38274 0.04082,3.38274 l 0.335897,0.4899 -0.453203,0.38499 c 0,0 -0.765436,0.65581 -1.182873,1.87068 0.005,-8e-4 0.0095,-0.003 0.01447,-0.004 -0.05353,0.11344 -0.07862,0.22556 -0.115755,0.33848 -0.06931,0.26223 -0.122629,0.54392 -0.147278,0.84956 a 0.66145998,0.66145998 0 0 1 -0.0155,0.0548 c 5.49e-4,1.18812 0.715309,2.17472 1.138432,2.37505 1.568871,0.74278 1.180762,0.14963 1.218014,1.57613 0.04667,1.78733 0.753891,2.22427 2.518709,3.05459 l 1.699642,0.79944 v 0.6382 c 0,0.91427 0.82298,1.61075 1.90376,1.61075 h 0.93172 v 0.001 h 0.93173 c 1.08078,0 1.90376,-0.69649 1.90376,-1.61076 v -0.6382 l 1.69964,-0.79995 c 1.76482,-0.83032 2.40324,-0.94482 2.5187,-2.72903 0.11865,-1.8335 -0.11224,-1.10107 1.21802,-1.9017 1.19405,-0.71865 0.93658,-1.90764 0.84697,-3.2122 -0.40938,-1.27619 -1.21698,-1.96629 -1.21698,-1.96629 l -0.45113,-0.38448 0.33641,-0.4904 c 0,0 1.05588,-1.4676 0.0408,-3.38274 -0.6389,-1.07419 -1.47716,-1.07791 -2.44533,-1.59577 -0.48587,-0.25988 -0.98393,-0.76572 -1.12293,-1.49397 -0.12471,-0.65334 -0.0379,-1.43603 0.25838,-2.53008 -0.0101,-0.69411 0.23843,-1.25361 0.50385,-1.94613 3.48903,-9.10393 3.95556,-13.51465 2.90008,-13.80019 -1.01133,-0.2736 -1.12914,0.28521 -1.6645,1.10226 -0.98732,1.71502 -0.76065,0.9647 -1.17254,-0.50333 -0.25602,-0.95962 -0.10705,-1.83271 -1.07435,-2.019 -1.01573,-0.11419 -1.24283,0.94368 -1.73685,1.6707 -0.43742,0.84087 -0.73774,2.02505 -1.02526,0.83612 -0.0796,-0.32929 -0.34426,-1.39777 -0.59841,-2.43034 -0.1186,-0.55188 -0.39061,-0.63823 -0.59945,-0.51108 z m 0.10956,1.24592 c 0.0474,-0.005 0.0587,5.9e-4 0.0739,0.008 0.16197,0.10952 0.3353,5.23244 2.19676,2.22053 1.34436,-2.17523 2.00176,-1.8123 2.01952,1.11415 -0.005,0.7453 0.3382,0.91157 0.5736,0.91157 0.3123,0 0.94707,-0.59265 1.41077,-1.31671 2.21803,-2.74676 -3.21648,11.30887 -3.88658,13.16508 l -0.71882,1.92392 h -0.91468 -0.91467 v -0.001 h -0.91467 -0.91467 l -0.71882,-1.92391 c -0.6701,-1.85621 -6.104623,-15.91185 -3.886588,-13.16509 0.463702,0.72406 1.09898,1.31672 1.411284,1.31672 0.235399,0 0.577891,-0.16628 0.573091,-0.91158 0.01776,-2.92645 0.675673,-3.28885 2.020033,-1.11362 1.63671,2.64824 1.86016,-2.07416 2.59054,-2.22829 z" /></g></svg>
